<svg width="256" height="256" viewBox="0 0 256 256" xmlns="http://www.w3.org/2000/svg"><title>aq-icon</title><path d="M128 256c70.692 0 128-57.308 128-128C256 57.308 198.692 0 128 0 57.308 0 0 57.308 0 128c0 70.692 57.308 128 128 128zM111.84 44.534C72.626 52.082 43 86.58 43 128c0 9.426 1.534 18.494 4.367 26.967L30 184.713h34.685C80.248 202.076 102.848 213 128 213s47.752-10.924 63.315-28.287H227l-18.008-30.845C211.595 145.712 213 137.02 213 128c0-41.02-29.056-75.252-67.71-83.24L128.5 16l-16.66 28.534zM128 68l38.567 14.037 20.52 35.544-7.125 40.42-31.44 26.382h-41.043L76.037 158l-7.126-40.42 20.52-35.543L128 68z" fill="#000" fill-rule="evenodd"/></svg>