<svg width="544" height="100" viewBox="0 0 544 100" xmlns="http://www.w3.org/2000/svg"><title>Adrian Quevedo</title><g fill="#000" fill-rule="evenodd"><path d="M120.728 70l13.68-49.824h12.096L160.184 70h-5.472l-3.6-12.816H129.8L126.2 70h-5.472zm17.856-45.072l-7.56 27.288h18.864l-7.56-27.288h-3.744zm51.728-6.624V70h-5.328v-2.448c-3.696 2.112-7.344 3.168-10.944 3.168-1.92 0-3.6-.24-5.04-.72s-2.784-1.344-4.032-2.592c-2.592-2.592-3.888-7.38-3.888-14.364 0-6.984 1.164-12.024 3.492-15.12 2.328-3.096 6.18-4.644 11.556-4.644 2.784 0 5.736.312 8.856.936V18.304h5.328zm-18.72 47.088c.864.336 1.98.504 3.348.504 1.368 0 2.904-.228 4.608-.684 1.704-.456 3.036-.9 3.996-1.332l1.44-.648V38.824c-3.072-.576-5.928-.864-8.568-.864-3.648 0-6.192 1.164-7.632 3.492-1.44 2.328-2.16 5.94-2.16 10.836 0 5.568.84 9.312 2.52 11.232.768.912 1.584 1.536 2.448 1.872zM196.752 70V34h5.328v4.896c4.176-2.88 8.568-4.776 13.176-5.688v5.472c-2.016.384-4.116.984-6.3 1.8-2.184.816-3.852 1.536-5.004 2.16l-1.8.936V70h-5.4zm20.912 0V34h5.4v36h-5.4zm0-44.136V19.6h5.4v6.264h-5.4zm37.184 19.008v18.432c.144 1.776 1.536 2.832 4.176 3.168l-.216 4.248c-3.792 0-6.648-.96-8.568-2.88-4.32 1.92-8.64 2.88-12.96 2.88-3.312 0-5.832-.936-7.56-2.808-1.728-1.872-2.592-4.56-2.592-8.064 0-3.504.888-6.084 2.664-7.74 1.776-1.656 4.56-2.676 8.352-3.06l11.304-1.08v-3.096c0-2.448-.528-4.2-1.584-5.256s-2.496-1.584-4.32-1.584c-3.84 0-7.824.24-11.952.72l-2.232.216-.216-4.104c5.28-1.056 9.96-1.584 14.04-1.584 4.08 0 7.044.936 8.892 2.808 1.848 1.872 2.772 4.8 2.772 8.784zM232.672 59.56c0 4.416 1.824 6.624 5.472 6.624 3.264 0 6.48-.552 9.648-1.656l1.656-.576v-11.88l-10.656 1.008c-2.16.192-3.72.816-4.68 1.872-.96 1.056-1.44 2.592-1.44 4.608zM266.904 70h-5.4V34h5.328v2.52c3.888-2.16 7.608-3.24 11.16-3.24 4.8 0 8.028 1.296 9.684 3.888 1.656 2.592 2.484 7.2 2.484 13.824V70h-5.328V51.136c0-4.992-.492-8.412-1.476-10.26-.984-1.848-3.084-2.772-6.3-2.772-1.536 0-3.156.228-4.86.684-1.704.456-3.012.9-3.924 1.332l-1.368.648V70zM318.472 70.864c-7.488 0-12.744-2.016-15.768-6.048-3.024-4.032-4.536-10.38-4.536-19.044s1.524-15.096 4.572-19.296c3.048-4.2 8.292-6.3 15.732-6.3 7.44 0 12.684 2.1 15.732 6.3 3.048 4.2 4.572 10.644 4.572 19.332 0 10.656-2.52 17.832-7.56 21.528l5.976 9.648-9.072 4.248-6.48-10.584c-.48.144-1.536.216-3.168.216zm0-8.64c3.888 0 6.54-1.248 7.956-3.744 1.416-2.496 2.124-6.72 2.124-12.672 0-5.952-.72-10.272-2.16-12.96-1.44-2.688-4.08-4.032-7.92-4.032s-6.48 1.344-7.92 4.032c-1.44 2.688-2.16 7.008-2.16 12.96 0 5.952.708 10.176 2.124 12.672 1.416 2.496 4.068 3.744 7.956 3.744zM363.648 34h9.648v36h-9.576v-2.016c-3.456 1.92-6.456 2.88-9 2.88-4.992 0-8.352-1.38-10.08-4.14-1.728-2.76-2.592-7.38-2.592-13.86V34h9.648v19.008c0 3.552.288 5.976.864 7.272.576 1.296 1.968 1.944 4.176 1.944 2.112 0 4.104-.336 5.976-1.008l.936-.288V34zm24.26 26.892c1.128.984 2.748 1.476 4.86 1.476 4.464 0 8.448-.144 11.952-.432l2.016-.216.144 7.128c-5.52 1.344-10.512 2.016-14.976 2.016-5.424 0-9.36-1.44-11.808-4.32-2.448-2.88-3.672-7.56-3.672-14.04 0-12.912 5.304-19.368 15.912-19.368 10.464 0 15.696 5.424 15.696 16.272l-.72 6.696h-21.168c.048 2.208.636 3.804 1.764 4.788zm10.62-12.132c0-2.88-.456-4.884-1.368-6.012-.912-1.128-2.508-1.692-4.788-1.692-2.28 0-3.888.588-4.824 1.764-.936 1.176-1.428 3.156-1.476 5.94h12.456zm8.6-14.76h10.08l5.76 27.792h2.016L431.032 34h9.792l-8.64 36h-16.416l-8.64-36zm44.42 26.892c1.128.984 2.748 1.476 4.86 1.476 4.464 0 8.448-.144 11.952-.432l2.016-.216.144 7.128c-5.52 1.344-10.512 2.016-14.976 2.016-5.424 0-9.36-1.44-11.808-4.32-2.448-2.88-3.672-7.56-3.672-14.04 0-12.912 5.304-19.368 15.912-19.368 10.464 0 15.696 5.424 15.696 16.272l-.72 6.696h-21.168c.048 2.208.636 3.804 1.764 4.788zm10.62-12.132c0-2.88-.456-4.884-1.368-6.012-.912-1.128-2.508-1.692-4.788-1.692-2.28 0-3.888.588-4.824 1.764-.936 1.176-1.428 3.156-1.476 5.94h12.456zm43.016-29.16V70h-9.576v-1.512c-3.36 1.584-6.264 2.376-8.712 2.376-5.232 0-8.88-1.512-10.944-4.536-2.064-3.024-3.096-7.812-3.096-14.364 0-6.552 1.236-11.328 3.708-14.328 2.472-3 6.204-4.5 11.196-4.5 1.536 0 3.672.24 6.408.72l1.368.288V19.6h9.648zm-10.656 41.76l1.008-.216V42.208c-2.64-.48-4.992-.72-7.056-.72-3.888 0-5.832 3.456-5.832 10.368 0 3.744.432 6.408 1.296 7.992.864 1.584 2.292 2.376 4.284 2.376s4.092-.288 6.3-.864zM524.8 33.136c5.952 0 10.2 1.644 12.744 4.932 2.544 3.288 3.816 7.908 3.816 13.86 0 12.624-5.52 18.936-16.56 18.936s-16.56-6.312-16.56-18.936c0-5.952 1.272-10.572 3.816-13.86 2.544-3.288 6.792-4.932 12.744-4.932zm0 29.52c2.544 0 4.308-.864 5.292-2.592.984-1.728 1.476-4.44 1.476-8.136 0-3.696-.492-6.384-1.476-8.064-.984-1.68-2.748-2.52-5.292-2.52-2.544 0-4.308.84-5.292 2.52-.984 1.68-1.476 4.368-1.476 8.064 0 3.696.492 6.408 1.476 8.136.984 1.728 2.748 2.592 5.292 2.592z"/><g><path d="M50 100c27.614 0 50-22.386 50-50S77.614 0 50 0 0 22.386 0 50s22.386 50 50 50zm-6.312-82.604C28.368 20.344 16.798 33.82 16.798 50c0 3.682.598 7.224 1.705 10.534l-6.784 11.62h13.548c6.08 6.782 14.907 11.05 24.732 11.05s18.653-4.268 24.732-11.05h13.94l-7.034-12.05c1.016-3.185 1.565-6.58 1.565-10.104 0-16.023-11.35-29.395-26.45-32.516L50.196 6.25l-6.507 11.146zM50 26.562l15.065 5.484L73.08 45.93l-2.783 15.79-12.28 10.304H41.983L29.704 61.72l-2.785-15.79 8.015-13.884L50 26.563z"/></g></g></svg>